<?xml version="1.0" encoding="utf-8"?>
<!-- Generator: Adobe Illustrator 27.9.0, SVG Export Plug-In . SVG Version: 6.00 Build 0)  -->
<svg version="1.1" id="Layer_1" xmlns="http://www.w3.org/2000/svg" xmlns:xlink="http://www.w3.org/1999/xlink" x="0px" y="0px"
	 width="500px" height="500px" viewBox="0 0 500 500" style="enable-background:new 0 0 500 500;" xml:space="preserve">
<style type="text/css">
	.st0{fill:#A3A3A3;}
	.st1{fill-rule:evenodd;clip-rule:evenodd;fill:#A3A3A3;}
</style>
<g>
	<path class="st1" d="M462.2,303.3c-3.2,6.2-8.7,14.5-13.6,19.6c-398.5,0-398.5,0-398.5,0C46.9,319,39.9,310,37,303.3H462.2z"/>
	<path class="st1" d="M432.5,343.1c-365.9,0-365.9,0-365.9,0c5.8,7.1,12,13.3,18.8,17.9c326.6,0,326.6,0,326.6,0
		C420.3,356.3,427.7,350.1,432.5,343.1"/>
	<path class="st1" d="M387.4,379.9c-100.5,0-100.5,0-100.5,0c-2.8,15.9-2.8,30.8-2.8,41.4C313.4,419.3,352,406.1,387.4,379.9"/>
	<path class="st1" d="M499.5,173.4c-45.8,2.8-111.6,33.6-154.3,83.7c-7.8,9-14.9,17.9-20.3,27.4c147,0,147,0,147,0
		C492.1,244.9,502.4,205.4,499.5,173.4"/>
	<path class="st1" d="M214.3,421.3c0.5-10.4,0.5-25.3-1.6-41.4c-101.2,0-101.2,0-101.2,0C147.6,406.1,186.2,419.3,214.3,421.3"/>
	<path class="st1" d="M249.5,424.5c10.6-11,21.6-25.8,31.3-44.6c-63,0-63,0-63,0C228.5,398.6,238.2,413.5,249.5,424.5"/>
	<path class="st1" d="M174.5,284.3c-5.5-9.4-12.9-18.4-20.3-27.4C111.5,207,45.3,176,0.6,173.4c-3.2,32,6.9,71.5,26.5,110.9H174.5z"
		/>
	<path class="st1" d="M313.4,284.3c0.9-11.3,1.9-22.3,1.9-35.2c0-69.7-31.3-141.5-65.6-173.6c-34.7,32-65.3,103.9-65.3,173.6
		c0,12.9,0,23.9,1.9,35.2H313.4z"/>
</g>
</svg>
