<?xml version="1.0" encoding="utf-8"?>
<!-- Generator: Adobe Illustrator 27.9.0, SVG Export Plug-In . SVG Version: 6.00 Build 0)  -->
<svg version="1.1" id="Layer_1" xmlns="http://www.w3.org/2000/svg" xmlns:xlink="http://www.w3.org/1999/xlink" x="0px" y="0px"
	 width="500px" height="500px" viewBox="0 0 500 500" style="enable-background:new 0 0 500 500;" xml:space="preserve">
<style type="text/css">
	.st0{fill:#A3A3A3;}
	.st1{fill-rule:evenodd;clip-rule:evenodd;fill:#A3A3A3;}
	.st2{fill-rule:evenodd;clip-rule:evenodd;fill:#FFFFFF;}
</style>
<g>
	<path class="st0" d="M433,411.6c-206.4,98.2-334.4,16-416.4-33.9c-5.1-3.1-13.7,0.7-6.2,9.3C37.6,420.2,127.2,500,244,500
		c116.9,0,186.5-63.8,195.2-74.9C447.8,414,441.7,408,433,411.6L433,411.6z M490.9,379.6c-5.5-7.2-33.7-8.6-51.4-6.4
		c-17.7,2.1-44.4,13-42.1,19.5c1.2,2.4,3.6,1.3,15.8,0.2c12.2-1.2,46.5-5.5,53.6,3.8c7.2,9.4-10.9,54.1-14.2,61.4
		c-3.2,7.2,1.2,9.1,7.2,4.3c5.9-4.8,16.6-17.2,23.8-34.9C490.8,409.8,495.2,385.1,490.9,379.6L490.9,379.6z"/>
	<path class="st1" d="M294.2,211.2c0,25.8,0.7,47.3-12.4,70.1c-10.5,18.6-27.2,30.1-45.8,30.1c-25.4,0-40.2-19.4-40.2-47.9
		c0-56.4,50.5-66.6,98.3-66.6V211.2z M360.9,372.4c-4.4,3.9-10.7,4.2-15.6,1.6c-22-18.2-25.9-26.7-38-44.1
		c-36.3,37-62,48.1-109,48.1c-55.6,0-99-34.3-99-103.1c0-53.7,29.1-90.2,70.5-108.1c35.9-15.8,86.1-18.6,124.4-23v-8.6
		c0-15.7,1.2-34.3-8-47.9c-8.1-12.2-23.5-17.2-37.1-17.2c-25.2,0-47.7,12.9-53.2,39.7c-1.1,6-5.5,11.8-11.4,12.1l-64.2-6.9
		c-5.4-1.2-11.3-5.6-9.9-13.9C125.2,23.4,195.4,0,258.3,0c32.2,0,74.2,8.6,99.6,32.9c32.2,30,29.1,70.1,29.1,113.8v103.1
		c0,31,12.8,44.6,24.9,61.3c4.3,6,5.2,13.1-0.2,17.6c-13.5,11.3-37.5,32.2-50.7,43.9L360.9,372.4"/>
	<path class="st0" d="M433,411.6c-206.4,98.2-334.4,16-416.4-33.9c-5.1-3.1-13.7,0.7-6.2,9.3C37.6,420.2,127.2,500,244,500
		c116.9,0,186.5-63.8,195.2-74.9C447.8,414,441.7,408,433,411.6L433,411.6z M490.9,379.6c-5.5-7.2-33.7-8.6-51.4-6.4
		c-17.7,2.1-44.4,13-42.1,19.5c1.2,2.4,3.6,1.3,15.8,0.2c12.2-1.2,46.5-5.5,53.6,3.8c7.2,9.4-10.9,54.1-14.2,61.4
		c-3.2,7.2,1.2,9.1,7.2,4.3c5.9-4.8,16.6-17.2,23.8-34.9C490.8,409.8,495.2,385.1,490.9,379.6L490.9,379.6z"/>
	<path class="st1" d="M294.2,211.2c0,25.8,0.7,47.3-12.4,70.1c-10.5,18.6-27.2,30.1-45.8,30.1c-25.4,0-40.2-19.4-40.2-47.9
		c0-56.4,50.5-66.6,98.3-66.6V211.2z M360.9,372.4c-4.4,3.9-10.7,4.2-15.6,1.6c-22-18.2-25.9-26.7-38-44.1
		c-36.3,37-62,48.1-109,48.1c-55.6,0-99-34.3-99-103.1c0-53.7,29.1-90.2,70.5-108.1c35.9-15.8,86.1-18.6,124.4-23v-8.6
		c0-15.7,1.2-34.3-8-47.9c-8.1-12.2-23.5-17.2-37.1-17.2c-25.2,0-47.7,12.9-53.2,39.7c-1.1,6-5.5,11.8-11.4,12.1l-64.2-6.9
		c-5.4-1.2-11.3-5.6-9.9-13.9C125.2,23.4,195.4,0,258.3,0c32.2,0,74.2,8.6,99.6,32.9c32.2,30,29.1,70.1,29.1,113.8v103.1
		c0,31,12.8,44.6,24.9,61.3c4.3,6,5.2,13.1-0.2,17.6c-13.5,11.3-37.5,32.2-50.7,43.9L360.9,372.4"/>
</g>
</svg>
