<?xml version="1.0" encoding="utf-8"?>
<!-- Generator: Adobe Illustrator 27.9.0, SVG Export Plug-In . SVG Version: 6.00 Build 0)  -->
<svg version="1.1" id="Layer_1" xmlns="http://www.w3.org/2000/svg" xmlns:xlink="http://www.w3.org/1999/xlink" x="0px" y="0px"
	 width="500px" height="500px" viewBox="0 0 500 500" style="enable-background:new 0 0 500 500;" xml:space="preserve">
<style type="text/css">
	.st0{fill:#A3A3A3;}
	.st1{fill-rule:evenodd;clip-rule:evenodd;fill:#A3A3A3;}
	.st2{fill-rule:evenodd;clip-rule:evenodd;fill:#FFFFFF;}
	.st3{fill:#FFFFFF;}
</style>
<g>
	<path class="st1" d="M136.3,338.2l-1,1c-12.7,12.7-27.4,19.6-43.1,19.6c-32.4,0-55.9-23.5-55.9-56.9c0-34.3,23.5-57.8,55.9-57.8
		c15.7,0,30.4,6.9,43.1,19.6l1,1l20.6-24.5v-1c-17.6-20.6-38.2-30.4-63.7-30.4c-25.5,0-49,8.8-65.7,24.5C8.8,250,0,273.6,0,302
		c0,27.5,8.8,51,27.4,67.6c16.7,15.7,40.2,24.5,65.7,24.5c25.5,0,46.1-9.8,63.7-30.4v-1L136.3,338.2L136.3,338.2z"/>
	<polygon class="st1" points="179.4,390.2 215.7,390.2 215.7,211.8 179.4,211.8 179.4,390.2 	"/>
	<path class="st1" d="M352.9,352c-8.8,5.9-18.6,8.8-26.5,8.8c-11.8,0-17.6-5.9-17.6-20.6v-94.1H346v-34.3h-37.3v-55.9l-35.3,19.6
		v36.3h-31.4v34.3h31.4v101c0,27.4,15.7,46.1,40.2,46.1c16.7,1,26.5-3.9,32.4-7.8h1v-1l8.8-34.3L352.9,352L352.9,352z"/>
	<polygon class="st1" points="379.4,390.2 416.6,390.2 416.6,211.8 379.4,211.8 379.4,390.2 	"/>
	<path class="st0" d="M297.7,142.5c40.3,0,76.9,16.1,103.7,42.1h47.9c-33.6-47.6-88.9-78.8-151.6-78.8c-62.7,0-118,31.2-151.6,78.8
		H194C220.9,158.6,257.4,142.5,297.7,142.5z"/>
	<path class="st0" d="M458.6,175.6c0-11.7,9.1-20.8,20.8-20.8c11.6,0,20.6,9,20.6,20.6c0,11.7-9.1,20.8-20.8,20.8
		C467.5,196.3,458.6,187.3,458.6,175.6z M495.8,175.6c0-9.7-7.1-17-16.6-17c-9.5,0-16.5,7.2-16.5,16.8c0,9.7,7.1,17,16.6,17
		C488.9,192.5,495.8,185.3,495.8,175.6z M471.1,163.8h8.7c5.5,0,8.7,2.4,8.7,7.3c0,3.6-1.7,5.5-4.2,6.5l4.4,8.6h-5.7l-4-7.9h-2.8
		c0,0.4,0,7.9,0,7.9h-5.3V163.8z M479.5,174.5c2.5,0,3.8-0.9,3.8-3c0-2-1.2-2.9-3.8-2.9h-3.1v5.9H479.5z"/>
</g>
</svg>
