<?xml version="1.0" encoding="utf-8"?>
<!-- Generator: Adobe Illustrator 27.9.0, SVG Export Plug-In . SVG Version: 6.00 Build 0)  -->
<svg version="1.1" id="svg9" xmlns:svg="http://www.w3.org/2000/svg"
	 xmlns="http://www.w3.org/2000/svg" xmlns:xlink="http://www.w3.org/1999/xlink" x="0px" y="0px" viewBox="0 0 32 32"
	 style="enable-background:new 0 0 32 32;" xml:space="preserve">
<g id="g21">
	<g id="g27" transform="translate(600,350)">
		<path id="path29" d="M-568-333.9c0-8.8-7.2-16-16-16s-16,7.2-16,16c0,7.5,5.2,13.8,12.1,15.5v-10.6h-3.3v-4.9h3.3v-2.1
			c0-5.4,2.5-8,7.8-8c1,0,2.8,0.2,3.5,0.4v4.4c-0.4,0-1-0.1-1.8-0.1c-2.6,0-3.6,1-3.6,3.6v1.7h5.2l-0.9,4.9h-4.3v11
			C-574.1-319-568-325.8-568-333.9"/>
	</g>
</g>
</svg>
