<?xml version="1.0" encoding="utf-8"?>
<!-- Generator: Adobe Illustrator 27.9.0, SVG Export Plug-In . SVG Version: 6.00 Build 0)  -->
<svg version="1.1" id="Layer_1" xmlns="http://www.w3.org/2000/svg" xmlns:xlink="http://www.w3.org/1999/xlink" x="0px" y="0px"
	 width="500px" height="500px" viewBox="0 0 500 500" style="enable-background:new 0 0 500 500;" xml:space="preserve">
<style type="text/css">
	.st0{fill:#A3A3A3;}
	.st1{fill-rule:evenodd;clip-rule:evenodd;fill:#A3A3A3;}
	.st2{fill-rule:evenodd;clip-rule:evenodd;fill:#FFFFFF;}
	.st3{fill:#FFFFFF;}
</style>
<path class="st0" d="M260,297.2v-68.3h230.2c2.3,11.9,3.4,26,3.4,41.2c0,51.2-14,114.6-59.2,159.8c-43.9,45.7-100,70.1-174.4,70.1
	C122.3,500,6.4,387.8,6.4,250S122.3,0,260.1,0c76.2,0,130.5,29.9,171.3,68.9l-48.2,48.2C353.9,89.6,314.3,68.3,260,68.3
	C159.4,68.3,80.7,149.4,80.7,250S159.4,431.7,260,431.7c65.3,0,102.4-26.2,126.2-50c19.3-19.3,32-46.9,37-84.6L260,297.2z"/>
</svg>
