<?xml version="1.0" encoding="utf-8"?>
<!-- Generator: Adobe Illustrator 27.9.0, SVG Export Plug-In . SVG Version: 6.00 Build 0)  -->
<svg version="1.1" id="Layer_1" xmlns="http://www.w3.org/2000/svg" xmlns:xlink="http://www.w3.org/1999/xlink" x="0px" y="0px"
	 width="500px" height="500px" viewBox="0 0 500 500" style="enable-background:new 0 0 500 500;" xml:space="preserve">
<style type="text/css">
	.st0{fill:#A3A3A3;}
	.st1{fill-rule:evenodd;clip-rule:evenodd;fill:#A3A3A3;}
	.st2{fill-rule:evenodd;clip-rule:evenodd;fill:#FFFFFF;}
</style>
<g>
	<path id="path9939" class="st2" d="M212.1,228.3l34.1-204C123.5,26.5,24.4,126.7,24.4,250c0,38.4,10.5,75.3,28,109.2L212.1,228.3z
		 M249.7,293.7L56.4,366.3C96.6,433.7,171.6,475.5,250,475.5c78.8,0,152.8-41.8,193.5-109.2L249.7,293.7z M287.6,228.3l160,130.9
		c17.9-33.6,28.2-70.8,28.2-109.2c0-124.4-98.7-222.1-221.8-226L287.6,228.3z M500,250c0,137.4-112.6,250-250,250
		C112.8,500,0,387.4,0,250C0,112.6,112.6,0,250,0C387.4,0,500,112.6,500,250"/>
	<path id="path9979" class="st0" d="M500,250c0,137.4-112.6,250-250,250C112.8,500,0,387.4,0,250C0,112.6,112.6,0,250,0
		C387.4,0,500,112.6,500,250z M194.6,277.9l-0.3,0.6l0.8-0.3L243,250l-8.5-4.8L194.6,277.9z M413.2,342.3h0.9l-0.5-0.8l-145.3-97.6
		l-11,6.2L413.2,342.3z M248.5,75.1l-0.4-0.6l-0.4,0.6l-10.1,163.4l9,5.4L248.5,75.1z M400,73.6l0.3,0.8c11.8,11,23,22.9,33.2,35.6
		c31.5,39.5,48,89.4,48,140c0,39.8-10.6,78.2-29.7,112.9l2.6,4.8l-5.4,0.3C407.4,437.4,331,481.1,250,481.1
		c-81.2,0-157.1-43.5-198.7-113.1l-5.1-0.3l2.1-4.8c-12.1-22.3-20.5-46-25.4-70.8l-0.5-0.6l-0.3,0.8c3.2,26.2,11.5,51.9,24,75.3
		c40.9,76.7,117.1,121.9,203.9,121.9c131.7,0,239.1-108.1,239.1-239.6c0-67.4-34.8-135.4-88.5-176.4H400z M246.2,24.3
		C123.5,26.5,24.4,126.7,24.4,250c0,38.4,10.5,75.3,28,109.2l156.6-128.4l12.8,7.3l-171,125.6l-0.7,1.7h1.9l194.4-109.5l-0.4,39.2
		L56.4,366.3C96.6,433.7,171.6,475.5,250,475.5c78.8,0,152.8-41.8,193.5-109.2L254,295.1l-0.5-39.2l195,109.5h1.7l-0.8-1.4
		L278.2,238.1l12.7-7.3l156.7,128.4c17.9-33.6,28.2-70.8,28.2-109.2c0-124.4-98.7-222.1-221.8-226L287,224l-33.5,19.8L251,20.3
		l-1-1.1l-0.9,1.1l-23.6,210.8l-12.6-7.1L246.2,24.3z M90.4,433.7C41.8,384.9,13.9,319.4,13.9,250C13.9,119.9,119.9,13.8,250,13.8
		c113.9,0,211,82.4,239.4,190.5l0.6,0.3l0.3-0.6C467.6,89.7,367.3,5.6,250,5.6C115.7,5.6,5.6,115.7,5.6,250
		c0,70.8,31.5,137.7,84.3,184.5h0.7L90.4,433.7"/>
</g>
</svg>
