<?xml version="1.0" encoding="utf-8"?>
<!-- Generator: Adobe Illustrator 27.9.0, SVG Export Plug-In . SVG Version: 6.00 Build 0)  -->
<svg version="1.1" id="Layer_1" xmlns="http://www.w3.org/2000/svg" xmlns:xlink="http://www.w3.org/1999/xlink" x="0px" y="0px"
	 width="500px" height="500px" viewBox="0 0 500 500" style="enable-background:new 0 0 500 500;" xml:space="preserve">
<style type="text/css">
	.st0{fill:#A3A3A3;}
	.st1{fill-rule:evenodd;clip-rule:evenodd;fill:#A3A3A3;}
	.st2{fill-rule:evenodd;clip-rule:evenodd;fill:#FFFFFF;}
</style>
<g>
	<path class="st0" d="M250,111.7l51.6-63.1c0,0,88.4,1.9,176.4,42.8c-22.5,34.1-67.3,50.8-67.3,50.8c-3-30-24-37.3-90.7-37.3
		l-70,395l-70.5-395.1c-66.2,0-87.2,7.3-90.2,37.3c0,0-44.8-16.5-67.3-50.6c88-40.9,176.4-42.8,176.4-42.8L250,111.7L250,111.7
		L250,111.7z M250,30.5c71.1-0.7,152.6,11,236,47.4c11.2-20.2,14-29,14-29C408.9,12.8,323.5,0.3,250,0C176.5,0.3,91.1,12.7,0,48.9
		c0,0,4.1,11,14,29.1C97.4,41.4,178.9,29.9,250,30.5L250,30.5z"/>
</g>
</svg>
