<?xml version="1.0" encoding="utf-8"?>
<!-- Generator: Adobe Illustrator 27.9.0, SVG Export Plug-In . SVG Version: 6.00 Build 0)  -->
<svg version="1.1" id="Layer_1" xmlns="http://www.w3.org/2000/svg" xmlns:xlink="http://www.w3.org/1999/xlink" x="0px" y="0px"
	 width="500px" height="500px" viewBox="0 0 500 500" style="enable-background:new 0 0 500 500;" xml:space="preserve">
<style type="text/css">
	.st0{fill:#A3A3A3;}
	.st1{fill-rule:evenodd;clip-rule:evenodd;fill:#A3A3A3;}
</style>
<path class="st0" d="M249.9,168.3c11.7,0,21.4-6.1,22.7-14l11.6-130.8C284.2,10.6,269,0,250,0c-19,0-34.2,10.6-34.2,23.5l11.6,130.8
	C228.7,162.2,238.3,168.3,249.9,168.3L249.9,168.3 M179.2,209.2c5.9-10.1,5.4-21.5-0.8-26.6L71,107.2c-11.2-6.5-27.9,1.3-37.5,17.8
	c-9.5,16.5-7.9,34.9,3.3,41.4l119.1,55.4C163.3,224.5,173.4,219.2,179.2,209.2L179.2,209.2 M320.7,209.1c5.9,10.1,16,15.4,23.4,12.7
	l119.1-55.4c11.2-6.5,12.8-24.9,3.4-41.4c-9.6-16.5-26.4-24.3-37.5-17.8l-107.5,75.4C315.4,187.7,314.9,199.1,320.7,209.1
	L320.7,209.1 M249.9,331.7c11.7,0,21.4,6,22.7,13.9l11.6,130.8c0,13-15.1,23.6-34.2,23.6c-19,0-34.2-10.6-34.2-23.6l11.6-130.8
	C228.7,337.8,238.3,331.7,249.9,331.7L249.9,331.7 M320.7,290.9c5.9-10.2,16-15.4,23.4-12.6l119.1,55.4c11.2,6.5,12.8,24.9,3.4,41.4
	c-9.6,16.4-26.4,24.3-37.5,17.8l-107.5-75.4C315.4,312.4,314.9,301,320.7,290.9L320.7,290.9 M179.2,290.8
	c5.9,10.1,5.4,21.5-0.8,26.6L71,392.8c-11.2,6.5-27.9-1.4-37.5-17.8c-9.5-16.5-7.9-34.9,3.3-41.4l119.1-55.4
	C163.3,275.4,173.4,280.7,179.2,290.8L179.2,290.8"/>
</svg>
