<?xml version="1.0" encoding="utf-8"?>
<!-- Generator: Adobe Illustrator 27.9.0, SVG Export Plug-In . SVG Version: 6.00 Build 0)  -->
<svg version="1.1" id="Layer_1" xmlns="http://www.w3.org/2000/svg" xmlns:xlink="http://www.w3.org/1999/xlink" x="0px" y="0px"
	 width="500px" height="500px" viewBox="0 0 500 500" style="enable-background:new 0 0 500 500;" xml:space="preserve">
<style type="text/css">
	.st0{fill:#A3A3A3;}
	.st1{fill-rule:evenodd;clip-rule:evenodd;fill:#A3A3A3;}
	.st2{fill-rule:evenodd;clip-rule:evenodd;fill:#FFFFFF;}
	.st3{fill:#FFFFFF;}
</style>
<g id="layer1" transform="translate(48.2609,17.727447)">
	<path id="path820" class="st0" d="M396.3,71.1c-0.5-2.1-1-2.9-2.1-3.1L356.7,58l-5.2-21.4c-0.3-1-0.5-1.8-1.6-2.1l-38.6-10.4
		l-4.7-20.4c-0.1-1.2-0.9-2.3-2.1-2.6L204.2-17.5c-1.6-0.3-3.3-0.3-5,0L99,1.1c-1.2,0.3-2,1.4-2.1,2.6l-4.7,20.4L53.6,34.5
		c-1,0.3-1.3,1-1.5,2.1L46.8,58L9.2,68c-1,0.3-1.6,1-2.1,3.1C4,87.8,2.4,104.8,2.4,121.7c0,150.2,78.2,280.7,195.1,358.4
		c1.2,1,2.6,1.7,4.2,2.1c1.5-0.4,3-1.1,4.2-2.1C322.8,402.4,401,272,401,121.7C401.1,104.8,399.5,87.8,396.3,71.1z"/>
	<path id="path818" class="st3" d="M187.1,411.2c0,1-1,1.5-2.1,0.5c-28.7-32.9-48-73-61-116.8l-19.8,12.4c-5.2,3.6-9.4,2.1-12.5-3.7
		c-26.6-47-43.8-124.1-45.4-178.4c-0.1-2.5,0.9-4.9,2.6-6.7c7.1-8.5,14.7-16.5,22.9-24c1.5-1.6,3.1-0.5,3.1,2.1
		c0,66.8,11.5,128.8,29.7,169.5c1.5,3.1,3.1,3.1,5.2,1.6l5.7-3.7c-10.9-48.5-17.2-113.2-15.6-187.8c0-2.6,0.5-3.7,2.1-4.7
		c8-5,16.4-9.3,25-13c2.6-1,3.2-0.5,3.2,1.5c-1.6,108.5,7.3,183.6,26.6,243.6c0.5,1.5,2.1,1,2.1-0.5c-1-21.9-1-41.2-1-64.7l-1-187.3
		c0-2.1,0.5-3.1,2.6-3.7c8.6-2.1,17.3-3.7,26.1-4.7c0.4-0.1,0.9,0.1,1.2,0.4c0.3,0.3,0.5,0.7,0.4,1.2L187.1,411.2z"/>
	<path id="WB-White" class="st3" d="M217.9,42.8c-0.4-0.1-0.9,0.1-1.2,0.4c-0.3,0.3-0.5,0.8-0.4,1.2v366.8c0,1,1,1.5,2.1,0.5v-0.1
		c98.2-90.8,127.8-158,127.8-198.8c0-22.9-8.9-40.1-31.8-46.4c11.7-13,18.2-29.9,18.2-47.4C332.7,76.7,287.8,47.5,217.9,42.8
		L217.9,42.8z M246.1,77.1c31.8,2.2,55.8,19.4,55.8,40.2c0,21.9-15.5,45.4-55.8,68.8V77.1z M297.7,195.6c9.9,0,16.7,8.3,16.7,23
		c0,20.9-15.1,61.5-68.3,121V221.7C276.8,199.8,286.7,195.6,297.7,195.6z"/>
</g>
</svg>
